<svg xmlns="http://www.w3.org/2000/svg" width="16.58" height="12.568" viewBox="0 0 16.58 12.568"><path d="M14.6,49.29h-1.73l-.955-1.366a2.018,2.018,0,0,0-1.64-.82H6.308a2.018,2.018,0,0,0-1.64.82L3.712,49.29H1.982A1.927,1.927,0,0,0,0,51.168v6.625a1.927,1.927,0,0,0,1.982,1.878H14.6a1.927,1.927,0,0,0,1.982-1.878V51.168A1.927,1.927,0,0,0,14.6,49.29ZM8.29,58.135a4.233,4.233,0,1,1,0-8.452,4.233,4.233,0,1,1,0,8.452Zm6.055-6.2h-.793a.555.555,0,1,1,0-1.11h.721a.574.574,0,0,1,.613.529A.552.552,0,0,1,14.345,51.936Z" transform="translate(0 -47.104)" fill="#f3f3f3"/></svg>