<svg xmlns="http://www.w3.org/2000/svg" xmlns:xlink="http://www.w3.org/1999/xlink" width="29" height="20" viewBox="0 0 89.028 20"><defs><filter id="a" x="0" y="11.832" width="80.386" height="68.811" filterUnits="userSpaceOnUse"><feOffset dy="10" input="SourceAlpha"/><feGaussianBlur stdDeviation="10" result="b"/><feFlood flood-opacity="0.051"/><feComposite operator="in" in2="b"/><feComposite in="SourceGraphic"/></filter><filter id="c" x="20.228" y="12.745" width="68.8" height="67.897" filterUnits="userSpaceOnUse"><feOffset dy="10" input="SourceAlpha"/><feGaussianBlur stdDeviation="10" result="d"/><feFlood flood-opacity="0.051"/><feComposite operator="in" in2="d"/><feComposite in="SourceGraphic"/></filter><filter id="e" x="5.442" y="0" width="69.282" height="71.376" filterUnits="userSpaceOnUse"><feOffset dy="10" input="SourceAlpha"/><feGaussianBlur stdDeviation="10" result="f"/><feFlood flood-opacity="0.051"/><feComposite operator="in" in2="f"/><feComposite in="SourceGraphic"/></filter><filter id="g" x="16.784" y="3.274" width="67.812" height="69.362" filterUnits="userSpaceOnUse"><feOffset dy="10" input="SourceAlpha"/><feGaussianBlur stdDeviation="10" result="h"/><feFlood flood-opacity="0.051"/><feComposite operator="in" in2="h"/><feComposite in="SourceGraphic"/></filter></defs><g transform="translate(30.42 20.4)" style="isolation:isolate"><g transform="translate(0 -0.302)"><g transform="matrix(1, 0, 0, 1, -30.42, -20.1)" filter="url(#a)"><path d="M15.864,24.906,9.72,24.1l-6.144.806C2.065,25.208.4,26.266.2,27.928L0,32.108H19.541l-.252-3.979C19.188,26.467,17.879,25.258,15.864,24.906ZM.957,31.1l.252-3.072a2.977,2.977,0,0,1,2.518-2.166l5.943-.806,5.993.806c.755.151,2.468.6,2.568,2.266l.151,2.921H.957Z" transform="translate(30.42 8.14)" fill="#6170fc" stroke="#6170fc" stroke-width="0.8"/></g><g transform="matrix(1, 0, 0, 1, -30.42, -20.1)" filter="url(#c)"><path d="M42.114,33.051h6.043l-.05-3.777c-.1-1.36-1.158-2.367-2.871-2.669L40.3,26l-.1,1.007,4.936.6c.554.1,1.914.453,2.014,1.712l.151,2.72H42.114Z" transform="translate(10.47 7.19)" fill="#6170fc" stroke="#6170fc" stroke-width="0.8"/></g></g><g transform="matrix(1, 0, 0, 1, -30.42, -20.4)" filter="url(#e)"><path d="M11.188,6.849c.4,2.266,1.914,3.727,3.828,3.727a3.826,3.826,0,0,0,1.862-.515,4.335,4.335,0,0,0,1.966-3.212c.05-.353.4-2.115.4-2.568A3.942,3.942,0,0,0,18.138,1.36,4.183,4.183,0,0,0,15.015,0a4.377,4.377,0,0,0-3.173,1.36,3.714,3.714,0,0,0-1.058,2.921C10.785,4.734,11.137,6.6,11.188,6.849Zm1.36-4.784a3.469,3.469,0,0,1,2.468-1.058,3.308,3.308,0,0,1,2.417,1.007,3.21,3.21,0,0,1,.856,2.216c0,.3-.252,1.612-.4,2.417-.252,1.41-1.158,2.921-2.871,2.921S12.4,8.008,12.145,6.648c-.151-.806-.4-2.166-.4-2.417A3.13,3.13,0,0,1,12.548,2.065Z" transform="translate(25.07 20.4)" fill="#6170fc" stroke="#6170fc" stroke-width="0.8"/></g><g transform="matrix(1, 0, 0, 1, -30.42, -20.4)" filter="url(#g)"><path d="M33.6,12.04c.353,1.863,1.561,3.022,3.173,3.022s2.82-1.158,3.173-3.022c.05-.3.353-1.712.353-2.065h0a3.184,3.184,0,0,0-.907-2.367,3.649,3.649,0,0,0-5.238,0,3.215,3.215,0,0,0-.856,2.367C33.295,10.328,33.546,11.738,33.6,12.04Zm1.259-3.727a2.663,2.663,0,0,1,1.914-.806,2.752,2.752,0,0,1,1.914.806,2.024,2.024,0,0,1,.6,1.662c0,.2-.2,1.209-.3,1.914-.1.5-.554,2.216-2.166,2.216a2.335,2.335,0,0,1-2.166-2.216c-.1-.6-.3-1.712-.3-1.914A1.961,1.961,0,0,1,34.856,8.313Z" transform="translate(13.9 17.17)" fill="#6170fc" stroke="#6170fc" stroke-width="0.8"/></g></g></svg>